<svg width="60" height="76" viewBox="0 0 60 79" fill="none" xmlns="http://www.w3.org/2000/svg">
<path d="M26.8098 0H39.2538V57.035C32.8797 58.2407 28.1871 58.7151 23.1103 58.7151C7.91162 58.6992 0 51.9091 0 38.8684C0 26.3036 8.39208 18.1492 21.3966 18.1492C23.4146 18.1492 24.952 18.3078 26.8098 18.7837V0ZM27.2459 29.062C25.7885 28.586 24.5874 28.4274 23.0499 28.4274C16.7558 28.4274 13.1203 32.2666 13.1203 38.9948C13.1203 45.5453 16.5957 49.1625 22.9698 49.1625C24.3471 49.1625 25.4682 49.0847 27.2459 48.8468V29.062Z" fill="#2BA977"/>
<path d="M59.6033 19.6805V48.2369C59.6033 58.0714 58.8665 62.8006 56.7045 66.8778C54.6865 70.798 52.028 73.2697 46.5347 76L34.9875 70.5584C40.4808 68.0058 43.1394 65.7498 44.837 62.3072C46.6147 58.7868 47.1753 54.7096 47.1753 43.9851V19.6805H59.6033Z" fill="#2BA977"/>
<path d="M45.9211 0H58.3651V12.6441H45.9211V0Z" fill="#2BA977"/>
</svg>
