<svg width="47" height="70" viewBox="0 0 47 70" fill="none" xmlns="http://www.w3.org/2000/svg">
<path d="M23.446 35.0351C23.446 31.9448 24.6657 28.9811 26.8367 26.796C29.0076 24.6108 31.952 23.3832 35.0223 23.3832C38.0925 23.3832 41.0369 24.6108 43.2079 26.796C45.3789 28.9811 46.5985 31.9448 46.5985 35.0351C46.5985 38.1254 45.3789 41.0891 43.2079 43.2742C41.0369 45.4594 38.0925 46.687 35.0223 46.687C31.952 46.687 29.0076 45.4594 26.8367 43.2742C24.6657 41.0891 23.446 38.1254 23.446 35.0351Z" fill="#1ABCFE"/>
<path d="M0.293457 58.3389C0.293457 55.2486 1.51309 52.285 3.68406 50.0998C5.85502 47.9146 8.79948 46.687 11.8697 46.687H23.4459V58.3389C23.4459 61.4292 22.2263 64.3929 20.0553 66.578C17.8843 68.7632 14.94 69.9908 11.8697 69.9908C8.79948 69.9908 5.85502 68.7632 3.68406 66.578C1.51309 64.3929 0.293457 61.4292 0.293457 58.3389Z" fill="#0ACF83"/>
<path d="M23.446 0.0794067V23.3832H35.0223C38.0925 23.3832 41.0369 22.1556 43.2079 19.9704C45.3789 17.7853 46.5985 14.8216 46.5985 11.7313C46.5985 8.64103 45.3789 5.67732 43.2079 3.49217C41.0369 1.30701 38.0925 0.0794067 35.0223 0.0794067H23.446Z" fill="#FF7262"/>
<path d="M0.293457 11.7313C0.293457 14.8216 1.51309 17.7853 3.68406 19.9704C5.85502 22.1556 8.79948 23.3832 11.8697 23.3832H23.4459V0.0794067H11.8697C8.79948 0.0794067 5.85502 1.30701 3.68406 3.49217C1.51309 5.67732 0.293457 8.64103 0.293457 11.7313Z" fill="#F24E1E"/>
<path d="M0.293457 35.0351C0.293457 38.1254 1.51309 41.0891 3.68406 43.2742C5.85502 45.4594 8.79948 46.687 11.8697 46.687H23.4459V23.3832H11.8697C8.79948 23.3832 5.85502 24.6108 3.68406 26.796C1.51309 28.9811 0.293457 31.9448 0.293457 35.0351Z" fill="#A259FF"/>
</svg>
