<svg width="118" height="40" viewBox="0 0 118 40" fill="none" xmlns="http://www.w3.org/2000/svg">
<path fill-rule="evenodd" clip-rule="evenodd" d="M4.83001 1.78372C4.50167 1.21502 4.69652 0.487833 5.26522 0.159496C5.83392 -0.168841 6.56111 0.0260091 6.88944 0.594706L9.41442 4.96809C9.44726 4.974 9.48013 4.98133 9.51294 4.99013L15.3233 6.54738C15.9576 6.71739 16.3341 7.36945 16.1641 8.0038C15.9942 8.63815 15.3422 9.01457 14.7079 8.84456L9.46183 7.43853L8.05752 12.6808C7.88759 13.3151 7.23561 13.6916 6.60128 13.5215C5.96696 13.3515 5.59049 12.6995 5.76042 12.0651L7.31695 6.25462C7.32659 6.21864 7.33778 6.18349 7.35043 6.14922L4.83001 1.78372ZM80.7333 11.4018V28.8901H83.8523V22.672C83.8523 21.5709 84.1365 20.7127 84.7051 20.0974C85.2899 19.482 86.0209 19.1744 86.8981 19.1744C87.7916 19.1744 88.4414 19.4497 88.8475 20.0002C89.2699 20.5508 89.481 21.3442 89.481 22.3806V28.8901H92.5756V22.0891C92.5756 20.2755 92.1614 18.8991 91.3329 17.9599C90.5207 17.0207 89.3673 16.5511 87.8728 16.5511C86.9794 16.5511 86.1834 16.7455 85.4848 17.1341C84.8026 17.5065 84.2584 18.0247 83.8523 18.6886V11.4018H80.7333ZM41.1468 28.0885C42.3489 28.8172 43.754 29.1815 45.3623 29.1815C46.6456 29.1815 47.7015 28.9629 48.53 28.5257C49.3585 28.0885 50.0489 27.4651 50.6012 26.6555L50.8448 28.8901H53.7201V19.5387H46.2638V21.8705H50.5768C50.4144 23.2307 49.9351 24.3318 49.1391 25.1738C48.3594 25.9997 47.1979 26.4126 45.6547 26.4126C44.0789 26.4126 42.8281 25.9025 41.9021 24.8824C40.9925 23.846 40.5376 22.3887 40.5376 20.5103C40.5376 18.6319 41.0006 17.1584 41.9265 16.0896C42.8525 15.0047 44.1683 14.4623 45.874 14.4623C46.9461 14.4623 47.8233 14.689 48.5056 15.1424C49.1879 15.5796 49.659 16.1949 49.9189 16.9883H53.4034C53.0135 15.3043 52.1607 13.9846 50.8448 13.0292C49.529 12.0738 47.8721 11.5961 45.874 11.5961C44.1195 11.5961 42.6007 11.9767 41.3173 12.7377C40.0503 13.4826 39.0675 14.527 38.3689 15.871C37.6867 17.1989 37.3455 18.7372 37.3455 20.486C37.3455 22.2186 37.6785 23.7408 38.3446 25.0524C39.0106 26.3478 39.9447 27.3599 41.1468 28.0885ZM58.2874 28.6958C58.9535 29.0196 59.8063 29.1815 60.846 29.1815C61.8531 29.1815 62.6735 28.971 63.307 28.55C63.9568 28.129 64.4604 27.5947 64.8178 26.9469L65.1102 28.8901H67.7662V21.4819C67.7662 19.9112 67.2707 18.6967 66.2798 17.8385C65.2889 16.9802 63.9325 16.5511 62.2105 16.5511C61.2034 16.5511 60.2937 16.7293 59.4814 17.0855C58.6692 17.4256 58.0032 17.9194 57.4833 18.5671C56.9797 19.2149 56.6873 19.9759 56.6061 20.8503H59.652C59.7657 20.2674 60.0581 19.8302 60.5292 19.5387C61.0003 19.2311 61.5526 19.0772 62.1862 19.0772C62.8847 19.0772 63.4695 19.2715 63.9406 19.6602C64.4117 20.0488 64.6472 20.656 64.6472 21.4819V21.7733H61.577C59.8226 21.7733 58.5067 22.1215 57.6295 22.8178C56.7523 23.5141 56.3137 24.4209 56.3137 25.5382C56.3137 26.2021 56.4762 26.8093 56.801 27.3599C57.1259 27.9104 57.6214 28.3557 58.2874 28.6958ZM63.6238 25.8782C63.1365 26.4612 62.4461 26.7526 61.5526 26.7526C60.9678 26.7526 60.4967 26.6231 60.1393 26.364C59.7819 26.1049 59.6033 25.7406 59.6033 25.271C59.6033 24.8338 59.7819 24.4694 60.1393 24.178C60.4967 23.8703 61.0896 23.7165 61.9181 23.7165H64.5741C64.4442 24.5747 64.1274 25.2953 63.6238 25.8782ZM75.8624 28.8901C74.5953 28.8901 73.58 28.5824 72.8165 27.9671C72.053 27.3518 71.6712 26.2587 71.6712 24.688V19.4416H69.6V16.8426H71.6712L72.0367 13.6121H74.7902V16.8426H78.0554V19.4416H74.7902V24.7123C74.7902 25.2953 74.912 25.7001 75.1557 25.9268C75.4156 26.1373 75.8542 26.2425 76.4715 26.2425H77.9823V28.8901H75.8624ZM101.134 29.1815C99.9159 29.1815 98.8356 28.9225 97.8934 28.4043C96.9512 27.8861 96.2121 27.1574 95.676 26.2183C95.14 25.2791 94.8719 24.1942 94.8719 22.9635C94.8719 21.7167 95.1318 20.6074 95.6517 19.6359C96.1877 18.6643 96.9188 17.9113 97.8447 17.377C98.7869 16.8264 99.8915 16.5511 101.159 16.5511C102.344 16.5511 103.392 16.8102 104.302 17.3284C105.212 17.8466 105.918 18.559 106.422 19.4658C106.942 20.3565 107.202 21.3523 107.202 22.4534C107.202 22.6315 107.194 22.8178 107.177 23.0121C107.177 23.2064 107.169 23.4088 107.153 23.6193H97.9665C98.0315 24.5585 98.3564 25.2953 98.9412 25.8296C99.5423 26.364 100.265 26.6312 101.11 26.6312C101.743 26.6312 102.271 26.4935 102.694 26.2183C103.132 25.9268 103.457 25.5544 103.668 25.101H106.836C106.609 25.862 106.227 26.5583 105.691 27.1898C105.171 27.8052 104.521 28.2909 103.742 28.6472C102.978 29.0034 102.109 29.1815 101.134 29.1815ZM101.159 19.0772C100.395 19.0772 99.721 19.2958 99.1362 19.733C98.5514 20.154 98.1777 20.8018 98.0153 21.6762H104.034C103.985 20.8827 103.693 20.2512 103.157 19.7816C102.621 19.312 101.955 19.0772 101.159 19.0772ZM109.627 16.8426V28.8901H112.746V23.4007C112.746 22.4777 112.893 21.7571 113.185 21.239C113.494 20.7208 113.916 20.3565 114.452 20.1459C114.988 19.9354 115.597 19.8302 116.28 19.8302H117.157V16.5511C116.133 16.5511 115.24 16.7859 114.476 17.2555C113.729 17.7089 113.136 18.3243 112.698 19.1015L112.405 16.8426H109.627ZM17.1456 20.759C19.4371 19.436 20.2221 16.5056 18.8989 14.2138C17.5757 11.922 14.6455 11.1367 12.354 12.4597C10.0624 13.7827 9.27745 16.713 10.6006 19.0048C11.9238 21.2966 14.8541 22.082 17.1456 20.759ZM15.9064 18.6588C17.0402 18.0043 17.4285 16.5545 16.7739 15.4206C16.1193 14.2868 14.6695 13.8982 13.5358 14.5528C12.4021 15.2073 12.0137 16.6571 12.6684 17.7909C13.323 18.9248 14.7727 19.3134 15.9064 18.6588ZM8.94112 19.984C10.2643 22.2758 9.47929 25.2062 7.18778 26.5292C4.89627 27.8522 1.96599 27.0668 0.642824 24.775C-0.680345 22.4832 0.104651 19.5529 2.39616 18.2299C4.68767 16.9069 7.61795 17.6922 8.94112 19.984ZM6.79749 21.1496C7.45212 22.2835 7.06375 23.7333 5.93003 24.3878C4.79632 25.0424 3.34658 24.6538 2.69195 23.52C2.03732 22.3861 2.42569 20.9363 3.5594 20.2818C4.69312 19.6272 6.14286 20.0158 6.79749 21.1496ZM17.9727 32.9627C20.2642 31.6397 21.0492 28.7093 19.726 26.4175C18.4029 24.1257 15.4726 23.3403 13.1811 24.6633C10.8896 25.9863 10.1046 28.9167 11.4277 31.2085C12.7509 33.5003 15.6812 34.2857 17.9727 32.9627ZM16.6966 30.8083C17.8304 30.1537 18.2187 28.7039 17.5641 27.5701C16.9095 26.4362 15.4597 26.0477 14.326 26.7022C13.1923 27.3568 12.8039 28.8066 13.4586 29.9404C14.1132 31.0743 15.5629 31.4628 16.6966 30.8083ZM29.7175 32.8122C31.0406 35.104 30.2556 38.0344 27.9641 39.3574C25.6726 40.6804 22.7423 39.895 21.4192 37.6032C20.096 35.3114 20.881 32.3811 23.1725 31.0581C25.464 29.7351 28.3943 30.5204 29.7175 32.8122ZM27.5899 34.0038C28.2445 35.1376 27.8562 36.5874 26.7224 37.242C25.5887 37.8965 24.139 37.508 23.4844 36.3741C22.8297 35.2403 23.2181 33.7905 24.3518 33.1359C25.4855 32.4814 26.9353 32.8699 27.5899 34.0038ZM27.967 27.1924C30.2585 25.8694 31.0435 22.9391 29.7203 20.6473C28.3972 18.3555 25.4669 17.5701 23.1754 18.8931C20.8839 20.2161 20.0989 23.1465 21.422 25.4383C22.7452 27.7301 25.6755 28.5155 27.967 27.1924ZM26.7718 25.0793C27.9055 24.4247 28.2939 22.9749 27.6393 21.8411C26.9847 20.7072 25.5349 20.3187 24.4012 20.9732C23.2675 21.6278 22.8791 23.0775 23.5337 24.2114C24.1884 25.3453 25.6381 25.7338 26.7718 25.0793ZM28.8932 8.4436C30.2164 10.7354 29.4314 13.6658 27.1399 14.9888C24.8484 16.3118 21.9181 15.5264 20.5949 13.2346C19.2717 10.9428 20.0567 8.01245 22.3483 6.68945C24.6398 5.36644 27.57 6.1518 28.8932 8.4436ZM26.7503 9.59281C27.4049 10.7267 27.0166 12.1765 25.8828 12.831C24.7491 13.4856 23.2994 13.097 22.6448 11.9631C21.9901 10.8293 22.3785 9.3795 23.5122 8.72495C24.6459 8.0704 26.0957 8.45896 26.7503 9.59281Z" fill="#111111"></path>
</svg>
