<svg width="30" height="30" viewBox="0 0 54 54" fill="none" xmlns="https://github.com/mju-likelion/nana">
<g clip-path="url(#clip0_699_84)">
<path d="M15.9001 7.7C19.2001 5.8 22.8001 4.8 26.7001 4.8C30.6001 4.8 34.2001 5.8 37.5001 7.7C40.8001 9.6 43.4001 12.2 45.3001 15.5C47.2001 18.8 48.2001 22.4 48.2001 26.3C48.2001 31 46.8001 35.2 44.1001 38.9C41.4001 42.6 37.9001 45.2 33.5001 46.6C33.0001 46.7 32.6001 46.6 32.4001 46.4C32.2001 46.2 32.0001 45.9 32.0001 45.6C32.0001 45.5 32.0001 44.8 32.0001 43.5C32.0001 42.2 32.0001 40.9 32.0001 39.7C32.0001 37.9 31.5001 36.6 30.5001 35.7C31.6001 35.6 32.5001 35.4 33.4001 35.2C34.2001 35 35.1001 34.6 36.0001 34.1C36.9001 33.6 37.7001 33 38.3001 32.2C38.9001 31.5 39.4001 30.5 39.8001 29.3C40.2001 28.1 40.4001 26.7 40.4001 25.1C40.4001 22.9 39.7001 21 38.2001 19.4C38.9001 17.7 38.8001 15.8 38.0001 13.7C37.5001 13.5 36.7001 13.6 35.7001 14C34.7001 14.4 33.9001 14.8 33.1001 15.2L32.0001 15.9C30.3001 15.4 28.5001 15.2 26.6001 15.2C24.8001 15.2 23.0001 15.4 21.2001 15.9C20.9001 15.7 20.5001 15.4 20.0001 15.1C19.5001 14.8 18.7001 14.4 17.7001 14C16.6001 13.6 15.8001 13.5 15.3001 13.6C14.5001 15.7 14.4001 17.6 15.1001 19.3C13.7001 21 13.0001 22.9 13.0001 25.1C13.0001 26.7 13.2001 28.1 13.6001 29.3C14.0001 30.5 14.5001 31.5 15.1001 32.2C15.7001 32.9 16.4001 33.6 17.3001 34.1C18.2001 34.6 19.1001 35 19.9001 35.2C20.7001 35.4 21.7001 35.6 22.8001 35.7C22.1001 36.4 21.6001 37.3 21.4001 38.6C21.0001 38.8 20.6001 38.9 20.1001 39C19.7001 39.1 19.1001 39.1 18.5001 39.1C17.9001 39.1 17.3001 38.9 16.7001 38.5C16.1001 38.1 15.6001 37.5 15.2001 36.8C14.8001 36.2 14.4001 35.7 13.8001 35.3C13.3001 34.9 12.8001 34.7 12.4001 34.6L11.8001 34.5C11.4001 34.5 11.1001 34.5 11.0001 34.6C10.9001 34.7 10.8001 34.8 10.9001 34.9C11.0001 35 11.0001 35.2 11.2001 35.3C11.3001 35.4 11.4001 35.5 11.6001 35.6L11.8001 35.7C12.2001 35.9 12.6001 36.2 13.0001 36.8C13.4001 37.3 13.7001 37.8 13.9001 38.2L14.2001 38.8C14.4001 39.5 14.9001 40.1 15.4001 40.5C16.0001 40.9 16.6001 41.2 17.3001 41.3C18.0001 41.4 18.6001 41.5 19.2001 41.5C19.8001 41.5 20.3001 41.5 20.7001 41.4L21.3001 41.3C21.3001 42 21.3001 42.8 21.3001 43.8C21.3001 44.7 21.3001 45.2 21.3001 45.3C21.3001 45.6 21.2001 45.9 20.9001 46.1C20.7001 46.3 20.3001 46.4 19.8001 46.3C15.5001 44.9 12.0001 42.3 9.2001 38.6C6.4001 34.9 5.1001 30.7 5.1001 26C5.1001 22.1 6.1001 18.5 8.0001 15.2C10.0001 12.2 12.6001 9.6 15.9001 7.7ZM13.3001 35.6C13.4001 35.5 13.3001 35.4 13.1001 35.3C12.9001 35.2 12.8001 35.3 12.7001 35.4C12.6001 35.5 12.7001 35.6 12.9001 35.7C13.1001 35.8 13.3001 35.8 13.3001 35.6ZM14.2001 36.6C14.3001 36.5 14.3001 36.4 14.1001 36.2C13.9001 36 13.8001 36 13.7001 36.1C13.6001 36.2 13.6001 36.3 13.8001 36.5C13.9001 36.7 14.1001 36.7 14.2001 36.6ZM15.0001 37.8C15.2001 37.7 15.2001 37.5 15.0001 37.3C14.9001 37.1 14.7001 37 14.5001 37.1C14.3001 37.2 14.3001 37.4 14.5001 37.6C14.7001 37.8 14.9001 37.9 15.0001 37.8ZM16.2001 39C16.3001 38.9 16.3001 38.7 16.1001 38.5C15.9001 38.3 15.7001 38.2 15.5001 38.4C15.3001 38.5 15.4001 38.7 15.6001 38.9C15.9001 39.1 16.1001 39.1 16.2001 39ZM17.8001 39.7C17.9001 39.5 17.7001 39.3 17.4001 39.3C17.1001 39.2 16.9001 39.3 16.9001 39.5C16.8001 39.7 16.9001 39.8 17.3001 39.9C17.5001 40 17.7001 39.9 17.8001 39.7ZM19.6001 39.8C19.6001 39.6 19.4001 39.5 19.1001 39.5C18.8001 39.5 18.7001 39.6 18.7001 39.8C18.7001 40 18.9001 40.1 19.2001 40.1C19.4001 40.1 19.6001 40 19.6001 39.8ZM21.2001 39.5C21.2001 39.3 21.0001 39.2 20.7001 39.2C20.4001 39.3 20.3001 39.4 20.3001 39.6C20.3001 39.8 20.5001 39.9 20.8001 39.8C21.1001 39.9 21.2001 39.7 21.2001 39.5Z" fill="white"/>
</g>
<defs>
<clipPath id="clip0_699_84">
<rect width="54" height="54" fill="white"/>
</clipPath>
</defs>
</svg>
