<svg width="137" height="45" viewBox="0 0 140 45" fill="none" xmlns="http://www.w3.org/2000/svg">
<g clip-path="url(#clip0_679_121)">
<path d="M70.9899 20.2881H64.1247C64.0393 20.2881 63.9573 20.3216 63.8969 20.3812C63.8365 20.4407 63.8026 20.5215 63.8026 20.6058V23.9053C63.8032 23.9894 63.8373 24.0699 63.8976 24.1293C63.9579 24.1888 64.0395 24.2224 64.1247 24.223H66.8018V28.3346C66.8018 28.3346 66.1983 28.5382 64.5331 28.5382C62.5729 28.5382 59.8323 27.8313 59.8323 21.8898C59.8323 15.9484 62.6886 15.1811 65.368 15.1811C67.6866 15.1811 68.6848 15.5837 69.3201 15.7783C69.3668 15.7872 69.4148 15.7858 69.4609 15.7743C69.507 15.7628 69.5499 15.7415 69.5867 15.7119C69.6235 15.6822 69.6532 15.6449 69.6738 15.6027C69.6944 15.5604 69.7053 15.5143 69.7058 15.4674L70.4726 12.2685C70.4736 12.2206 70.4628 12.1731 70.441 12.1303C70.4193 12.0874 70.3873 12.0504 70.3478 12.0224C70.0915 11.839 68.5147 10.971 64.5354 10.971C59.9526 10.971 55.2495 12.8949 55.2495 22.1381C55.2495 31.3814 60.6332 32.7616 65.1706 32.7616C68.9276 32.7616 71.2054 31.1778 71.2054 31.1778C71.2415 31.1495 71.2699 31.1129 71.2881 31.0711C71.3063 31.0293 71.3138 30.9837 71.3098 30.9385V20.6058C71.3101 20.5642 71.302 20.5229 71.2861 20.4844C71.2701 20.4459 71.2466 20.4108 71.2169 20.3813C71.1871 20.3518 71.1518 20.3283 71.1128 20.3123C71.0738 20.2964 71.0321 20.2881 70.9899 20.2881Z" fill="#120B0C"/>
<path d="M106.377 12.0694C106.378 12.0278 106.37 11.9865 106.354 11.948C106.338 11.9094 106.314 11.8744 106.284 11.8449C106.255 11.8154 106.219 11.7919 106.18 11.7759C106.141 11.7599 106.1 11.7517 106.057 11.7517H102.201C102.158 11.7517 102.117 11.7599 102.078 11.7759C102.039 11.7919 102.003 11.8154 101.974 11.8449C101.944 11.8744 101.92 11.9094 101.904 11.948C101.888 11.9865 101.88 12.0278 101.881 12.0694V19.4313H95.8459V12.0694C95.8462 12.0278 95.8381 11.9865 95.8222 11.948C95.8063 11.9094 95.7827 11.8744 95.753 11.8449C95.7233 11.8154 95.6879 11.7919 95.6489 11.7759C95.61 11.7599 95.5682 11.7517 95.526 11.7517H91.6692C91.6272 11.752 91.5856 11.7604 91.5469 11.7766C91.5082 11.7927 91.4731 11.8162 91.4437 11.8457C91.4142 11.8752 91.3908 11.9101 91.375 11.9485C91.3592 11.9869 91.3513 12.0279 91.3516 12.0694V32.0189C91.351 32.1027 91.384 32.1834 91.4435 32.2434C91.503 32.3033 91.5841 32.3376 91.6692 32.3388H95.526C95.5683 32.3385 95.6102 32.33 95.6491 32.3137C95.6881 32.2975 95.7234 32.2739 95.7531 32.2442C95.7828 32.2145 95.8063 32.1793 95.8222 32.1406C95.8382 32.102 95.8462 32.0606 95.8459 32.0189V23.4847H101.872V32.0189C101.871 32.0606 101.879 32.102 101.895 32.1406C101.911 32.1793 101.935 32.2145 101.964 32.2442C101.994 32.2739 102.029 32.2975 102.068 32.3137C102.107 32.33 102.149 32.3385 102.191 32.3388H106.066C106.109 32.3385 106.151 32.33 106.19 32.3137C106.229 32.2975 106.264 32.2739 106.294 32.2442C106.323 32.2145 106.347 32.1793 106.363 32.1406C106.379 32.102 106.387 32.0606 106.386 32.0189L106.377 12.0694Z" fill="#120B0C"/>
<path d="M78.2838 14.6866C78.2788 14.201 78.1283 13.7277 77.8511 13.3263C77.5739 12.9249 77.1825 12.6133 76.726 12.4309C76.2696 12.2484 75.7686 12.2032 75.2862 12.3009C74.8038 12.3986 74.3614 12.6349 74.0149 12.9799C73.6684 13.325 73.4332 13.7635 73.3389 14.2402C73.2446 14.7168 73.2955 15.2103 73.485 15.6585C73.6746 16.1067 73.9945 16.4896 74.4043 16.7589C74.8142 17.0282 75.2957 17.1719 75.7882 17.1719C76.118 17.172 76.4446 17.1075 76.749 16.9823C77.0534 16.8571 77.3296 16.6737 77.5617 16.4425C77.7938 16.2114 77.9771 15.9373 78.101 15.6359C78.225 15.3345 78.2871 15.0118 78.2838 14.6866Z" fill="#120B0C"/>
<path d="M78.0093 27.8111V18.6014C78.0093 18.5175 77.9757 18.4371 77.9158 18.3775C77.8558 18.318 77.7745 18.2843 77.6894 18.2837H73.8326C73.7421 18.292 73.6578 18.3328 73.5959 18.3984C73.5339 18.464 73.4987 18.5498 73.4968 18.6394V31.8377C73.4968 32.2269 73.7419 32.341 74.0595 32.341H77.5306C77.9118 32.341 78.007 32.1576 78.007 31.8332L78.0093 27.8111Z" fill="#120B0C"/>
<path d="M121.07 18.3128H117.233C117.191 18.3131 117.15 18.3215 117.111 18.3377C117.072 18.3538 117.037 18.3773 117.008 18.4068C116.978 18.4363 116.955 18.4712 116.939 18.5096C116.923 18.548 116.915 18.589 116.916 18.6305V28.4128C116.214 28.8668 115.395 29.1107 114.556 29.1153C113.174 29.1153 112.807 28.4956 112.807 27.1601V18.6327C112.807 18.5488 112.773 18.4684 112.713 18.4089C112.653 18.3494 112.572 18.3156 112.487 18.315H108.592C108.507 18.3156 108.425 18.3494 108.365 18.4089C108.305 18.4684 108.272 18.5488 108.272 18.6327V27.8044C108.272 31.7728 110.513 32.7437 113.599 32.7437C116.128 32.7437 118.17 31.3634 118.17 31.3634C118.17 31.3634 118.268 32.0905 118.311 32.1777C118.339 32.2278 118.379 32.2699 118.429 32.3001C118.478 32.3303 118.534 32.3474 118.592 32.3499H121.07C121.112 32.3497 121.154 32.3411 121.193 32.3249C121.232 32.3087 121.267 32.285 121.297 32.2553C121.326 32.2256 121.35 32.1904 121.366 32.1518C121.382 32.1131 121.39 32.0718 121.389 32.0301V18.6327C121.39 18.591 121.382 18.5496 121.366 18.511C121.35 18.4723 121.326 18.4371 121.297 18.4074C121.267 18.3777 121.232 18.3541 121.193 18.3378C121.154 18.3216 121.112 18.3131 121.07 18.3128Z" fill="#120B0C"/>
<path d="M131.558 17.8654C130.272 17.8575 129.008 18.1888 127.896 18.8251V12.0694C127.896 12.0278 127.888 11.9865 127.872 11.948C127.856 11.9094 127.833 11.8744 127.803 11.8449C127.773 11.8154 127.738 11.7919 127.699 11.7759C127.66 11.7599 127.618 11.7517 127.576 11.7517H123.699C123.657 11.752 123.615 11.7604 123.577 11.7766C123.538 11.7927 123.503 11.8162 123.473 11.8457C123.444 11.8752 123.421 11.9101 123.405 11.9485C123.389 11.9869 123.381 12.0279 123.381 12.0694V32.0189C123.381 32.0606 123.389 32.102 123.405 32.1406C123.421 32.1793 123.444 32.2144 123.474 32.2442C123.504 32.2739 123.539 32.2975 123.578 32.3137C123.617 32.33 123.659 32.3385 123.701 32.3388H126.39C126.448 32.3381 126.505 32.3219 126.554 32.292C126.604 32.262 126.644 32.2195 126.671 32.1688C126.748 31.8667 126.803 31.5594 126.834 31.2493C126.834 31.2493 128.422 32.7302 131.422 32.7302C134.945 32.7302 136.966 30.9675 136.966 24.818C136.966 18.6685 133.738 17.8654 131.558 17.8654ZM130.045 29.1063C129.257 29.0864 128.487 28.8677 127.81 28.471V22.1537C128.42 21.8099 129.095 21.5937 129.793 21.5184C131.174 21.3976 132.515 21.807 132.515 25.0574C132.506 28.4844 131.905 29.1622 130.045 29.1063Z" fill="#120B0C"/>
<path d="M89.1214 18.2815H86.2197V14.5054C86.2197 14.3623 86.1449 14.2817 85.977 14.2817H82.0203C81.8683 14.2817 81.7935 14.3466 81.7935 14.4943V18.3978C81.7935 18.3978 79.8129 18.8698 79.679 18.9078C79.6134 18.9275 79.5558 18.9675 79.515 19.0219C79.4741 19.0763 79.4521 19.1422 79.4522 19.2098V21.6705C79.4519 21.7123 79.4599 21.7536 79.4758 21.7923C79.4917 21.8309 79.5152 21.8661 79.5449 21.8958C79.5746 21.9255 79.61 21.9492 79.6489 21.9654C79.6879 21.9816 79.7297 21.9901 79.772 21.9904H81.798V27.8916C81.798 32.2761 84.9175 32.7056 87.0161 32.7056C87.7931 32.6819 88.5636 32.557 89.3075 32.3343C89.364 32.3108 89.4117 32.2707 89.4442 32.2195C89.4767 32.1682 89.4923 32.1083 89.489 32.048V29.3501C89.4884 29.2665 89.4546 29.1863 89.3948 29.1269C89.335 29.0676 89.2539 29.0337 89.1691 29.0325C89.0012 29.0325 88.5679 29.0996 88.1232 29.0996C86.6984 29.0996 86.2152 28.4464 86.2152 27.6008V21.9927H89.1169C89.2021 21.9915 89.2835 21.9573 89.3434 21.8974C89.4032 21.8375 89.4368 21.7568 89.4368 21.6728V18.5991C89.4368 18.516 89.4038 18.4362 89.3448 18.3769C89.2859 18.3175 89.2057 18.2832 89.1214 18.2815Z" fill="#120B0C"/>
</g>
<g clip-path="url(#clip1_679_121)">
<path fill-rule="evenodd" clip-rule="evenodd" d="M23.4717 0.0667432C18.0804 0.0649415 12.8644 1.99156 8.75773 5.50167C4.65103 9.01177 1.92174 13.8761 1.05852 19.2239C0.195292 24.5716 1.2545 30.0535 4.0465 34.6881C6.8385 39.3226 11.181 42.8073 16.2964 44.518C17.424 44.7295 17.845 44.0233 17.845 43.4227C17.845 42.8788 17.8262 41.081 17.8149 39.1736C11.5004 40.556 10.1699 36.4844 10.1699 36.4844C9.13622 33.8405 7.6478 33.1455 7.6478 33.1455C5.58806 31.7292 7.80566 31.7594 7.80566 31.7594C10.0834 31.9218 11.2824 34.1087 11.2824 34.1087C13.3083 37.5986 16.5934 36.5902 17.8901 35.9972C18.0931 34.5241 18.6794 33.5195 19.3297 32.9491C14.2893 32.3713 8.98963 30.4148 8.98963 21.6749C8.95585 19.4089 9.79328 17.2171 11.3275 15.5561C11.0907 14.9783 10.3127 12.6592 11.5455 9.51298C11.5455 9.51298 13.4511 8.9011 17.7886 11.8509C21.5103 10.8286 25.4369 10.8286 29.1586 11.8509C33.4885 8.9011 35.3942 9.51298 35.3942 9.51298C36.627 12.6554 35.8527 14.9745 35.6159 15.5561C37.1488 17.2177 37.9849 19.4094 37.9501 21.6749C37.9501 30.4375 32.6428 32.3675 27.5874 32.9303C28.4031 33.6366 29.1285 35.0265 29.1285 37.1529C29.1285 40.2047 29.1022 42.6635 29.1022 43.4152C29.1022 44.0195 29.5081 44.7333 30.6583 44.5067C35.7663 42.7895 40.1002 39.3028 42.8853 34.6699C45.6705 30.0371 46.7253 24.5599 45.8614 19.2174C44.9974 13.8749 42.271 9.01516 38.1693 5.50686C34.0676 1.99856 28.8581 0.0703098 23.4717 0.0667432Z" fill="#1A1414"/>
<path d="M9.36932 32.8132C9.32046 32.9303 9.1438 32.9605 8.99346 32.885C8.84311 32.8094 8.73411 32.6546 8.79049 32.5412C8.84687 32.4279 9.01601 32.3939 9.16635 32.4695C9.3167 32.545 9.42194 32.6999 9.36556 32.8132H9.36932Z" fill="#1A1414"/>
<path d="M10.29 33.8443C10.181 33.9463 9.97056 33.901 9.82773 33.7385C9.75863 33.6834 9.71313 33.6038 9.70055 33.516C9.68797 33.4282 9.70927 33.3389 9.76007 33.2664C9.87283 33.1644 10.0758 33.2135 10.2261 33.3722C10.3765 33.5308 10.4028 33.7499 10.29 33.8443Z" fill="#1A1414"/>
<path d="M11.1846 35.1587C11.0455 35.2569 10.8087 35.1587 10.6772 34.9623C10.5456 34.7659 10.5381 34.5166 10.6772 34.4184C10.8163 34.3202 11.0531 34.4184 11.1846 34.611C11.3162 34.8036 11.3237 35.0605 11.1846 35.1587Z" fill="#1A1414"/>
<path d="M12.4101 36.4277C12.286 36.5675 12.0342 36.5297 11.8275 36.3409C11.6208 36.152 11.5757 35.8952 11.6997 35.7592C11.8237 35.6232 12.0756 35.6572 12.286 35.8461C12.4965 36.0349 12.5416 36.2918 12.4101 36.4277Z" fill="#1A1414"/>
<path d="M14.1014 37.1643C14.0488 37.3418 13.7932 37.4249 13.5338 37.3493C13.2745 37.2738 13.1091 37.0623 13.158 36.881C13.2068 36.6997 13.4699 36.6166 13.7255 36.6959C13.9811 36.7752 14.1502 36.983 14.1014 37.1643Z" fill="#1A1414"/>
<path d="M15.9582 37.2965C15.9582 37.4853 15.7477 37.6402 15.477 37.6439C15.2064 37.6477 14.9884 37.5004 14.9847 37.3153C14.9809 37.1303 15.1989 36.9716 15.4695 36.9641C15.7402 36.9565 15.9582 37.1114 15.9582 37.2965Z" fill="#1A1414"/>
<path d="M17.687 37.0056C17.7209 37.1907 17.5329 37.3833 17.2661 37.4286C16.9992 37.474 16.7586 37.3644 16.7248 37.1794C16.691 36.9943 16.8827 36.8017 17.1458 36.7563C17.4089 36.711 17.6532 36.8205 17.687 37.0056Z" fill="#1A1414"/>
</g>
<defs>
<clipPath id="clip0_679_121">
<rect width="81.7146" height="21.7906" fill="white" transform="translate(55.2495 10.962)"/>
</clipPath>
<clipPath id="clip1_679_121">
<rect width="45.397" height="44.4891" fill="white" transform="translate(0.773193 0.0667419)"/>
</clipPath>
</defs>
</svg>
