<svg width="156" height="94" viewBox="0 0 156 94" fill="none" xmlns="http://www.w3.org/2000/svg">
<g clip-path="url(#clip0_679_145)">
<path d="M19.7041 0H23.8849V4.14444H27.7385V0H31.9193V12.5424H27.7385V8.36159H23.9213V12.5424H19.7041V0ZM37.4452 4.1808H33.7552V0H45.3342V4.1808H41.626V12.5424H37.4452V4.1808ZM47.1701 0H51.5509L54.2411 4.4171L56.9314 0H61.3121V12.5424H57.1313V6.32573L54.2048 10.8337L51.2782 6.32573V12.5424H47.1701V0ZM63.3843 0H67.5651V8.39795H73.491V12.5424H63.3843" fill="black"/>
<path d="M19.5588 85.6154L13.5603 18.2864H79.5078L73.5093 85.5791L46.4795 93.0682" fill="#E44D26"/>
<path d="M46.5339 87.3423V23.8124H73.491L68.3468 81.2529" fill="#F16529"/>
<path d="M25.8118 32.0467H46.534V40.2993H34.8641L35.6276 48.7517H46.534V56.9861H28.0658L25.8118 32.0467ZM28.4293 61.1305H36.7182L37.2999 67.7289L46.534 70.201V78.8171L29.5927 74.091" fill="#EBEBEB"/>
<path d="M67.1834 32.0467H46.4976V40.2993H66.42L67.1834 32.0467ZM65.6747 48.7517H46.4976V57.0043H56.6769L55.7135 67.7289L46.4976 70.201V78.7808L63.4025 74.091" fill="white"/>
</g>
<g clip-path="url(#clip1_679_145)">
<path d="M103.522 1.07048C107.549 1.02061 111.577 1.05513 115.604 1.05322C115.614 2.31325 115.633 3.57329 115.587 4.83332C112.797 4.81414 110.008 4.83332 107.219 4.85058C107.2 6.68022 107.164 8.50987 107.181 10.3395C109.981 10.3568 112.783 10.3836 115.583 10.3721C115.616 11.4078 115.604 12.4472 115.574 13.4848C111.558 13.458 107.542 13.4695 103.526 13.4733C103.535 9.33838 103.543 5.20539 103.522 1.07048Z" fill="black"/>
<path d="M117.041 1.05706C121.118 1.04938 125.195 1.02445 129.275 1.07048C129.259 2.26147 129.271 3.45055 129.271 4.64154C126.304 4.63195 123.335 4.64538 120.368 4.6799C120.372 5.14786 120.372 5.61582 120.368 6.08377C123.331 6.13172 126.292 6.13747 129.254 6.15474C129.265 8.59617 129.259 11.0357 129.275 13.4752C125.195 13.4675 121.116 13.4714 117.037 13.4906C117.016 12.5048 117.014 11.5209 117.043 10.5351C119.87 10.5428 122.698 10.5466 125.525 10.5236C125.543 9.88881 125.55 9.25208 125.548 8.61727C122.708 8.61727 119.866 8.62686 117.025 8.60768C117.025 6.09145 117.025 3.57329 117.041 1.05706Z" fill="black"/>
<path d="M130.64 1.07814C134.71 1.07814 138.782 1.07814 142.851 1.07814C142.869 2.27489 142.886 3.47163 142.847 4.66646C139.867 4.66454 136.887 4.6818 133.906 4.68756C133.914 5.17661 133.926 5.66567 133.95 6.15472C136.914 6.1413 139.877 6.17774 142.838 6.20842C142.865 8.63835 142.884 11.0683 142.849 13.4982C138.77 13.4867 134.691 13.4867 130.611 13.5059C130.587 12.5239 130.579 11.5382 130.621 10.5562C133.442 10.5773 136.265 10.5735 139.088 10.5466C139.096 9.9099 139.11 9.27317 139.104 8.63835C136.271 8.6652 133.436 8.64986 130.602 8.64027C130.602 6.1202 130.621 3.59821 130.64 1.07814Z" fill="black"/>
<path d="M90.4092 18.6189C112.257 18.617 134.104 18.6151 155.952 18.6189C154.75 32.207 153.566 45.7951 152.314 59.3793C151.57 68.0614 150.803 76.7436 149.993 85.42C145.331 86.6551 140.715 88.0628 136.054 89.3037C131.774 90.5599 127.458 91.6972 123.176 92.9438H123.049C118.974 91.7317 114.858 90.6654 110.783 89.4533C105.973 88.1568 101.205 86.7107 96.3929 85.42C95.7658 78.9165 95.2 72.4092 94.6419 65.9019C93.589 53.8789 92.444 41.8634 91.4314 29.8384C91.0804 26.2194 90.8292 22.5889 90.4092 18.9776V18.6189ZM123.283 23.9794C123.237 26.5896 123.318 29.2017 123.237 31.81C115.742 31.7832 108.245 31.8043 100.75 31.8119C100.879 34.3454 101.218 36.8617 101.567 39.3741C108.541 39.633 115.524 39.3645 122.497 39.5735C116.396 42.3103 110.221 44.8879 104.093 47.5672C103.568 47.8011 103.006 47.9776 102.536 48.319C102.588 51.1018 103.036 53.8693 103.234 56.6463C106.951 56.6329 110.666 56.5734 114.382 56.5677C117.361 56.5524 120.341 56.6118 123.32 56.5466C123.178 61.1226 123.364 65.7044 123.224 70.2804C121.22 69.9831 119.24 69.5363 117.244 69.1815C115.669 68.8382 114.056 68.6598 112.505 68.2091C112.284 66.0132 112.131 63.8095 111.935 61.6117C111.486 61.4736 111.011 61.487 110.547 61.4793C108.295 61.4928 106.042 61.4717 103.788 61.5062C104.009 65.7312 104.388 69.9505 105.035 74.1353C107.256 74.7145 109.48 75.2822 111.697 75.8863C115.094 76.8107 118.533 77.5798 121.935 78.4889C122.34 78.5752 122.748 78.7248 123.168 78.6902C123.395 81.4692 123.22 84.2655 123.262 87.0521C124.047 86.9255 124.818 86.7318 125.575 86.4979C132.015 84.7488 138.448 82.9671 144.884 81.2007C145.204 78.6691 145.354 76.1203 145.607 73.583C146.277 65.8693 146.952 58.1557 147.654 50.444C148.476 41.6218 149.188 32.79 150.016 23.9679C141.104 23.9755 132.194 23.9506 123.283 23.9794Z" fill="#0170BA"/>
<path d="M123.283 23.9794C132.194 23.9506 141.104 23.9755 150.016 23.9679C149.188 32.79 148.476 41.6218 147.654 50.4439C146.952 58.1557 146.277 65.8693 145.607 73.583C145.354 76.1203 145.204 78.6691 144.884 81.2007C138.448 82.9671 132.015 84.7488 125.575 86.4979C124.818 86.7318 124.047 86.9255 123.262 87.0521C123.22 84.2655 123.395 81.4692 123.168 78.6902C123.226 78.6787 123.343 78.6557 123.4 78.6442C129.39 77.1406 135.339 75.4855 141.315 73.9282C142.071 65.4512 142.909 56.9781 143.44 48.4839C138.358 48.5107 133.273 48.4954 128.191 48.5165C127.451 48.5203 126.711 48.5165 125.974 48.4628C128.709 47.0551 131.586 45.9389 134.393 44.6827C137.088 43.461 139.815 42.316 142.519 41.1174C143.041 40.8777 143.597 40.6782 144.056 40.3215C144.236 39.6598 144.226 38.9675 144.297 38.2905C144.453 36.1424 144.729 34.0059 144.832 31.856C137.635 31.7985 130.437 31.8484 123.237 31.81C123.318 29.2017 123.237 26.5896 123.283 23.9794Z" fill="#29A9DF"/>
<path d="M123.32 56.5466C126.795 56.4871 130.272 56.5811 133.749 56.5581C133.555 60.1119 133.26 63.66 133.076 67.2138C130.945 67.9099 128.782 68.4987 126.634 69.1431C125.489 69.4922 124.313 69.7683 123.224 70.2804C123.364 65.7044 123.178 61.1226 123.32 56.5466Z" fill="#29A9DF"/>
<path d="M100.75 31.8119C108.245 31.8042 115.742 31.7831 123.237 31.81C123.335 40.0568 123.212 48.3036 123.32 56.5466C120.341 56.6118 117.361 56.5523 114.382 56.5677C110.666 56.5734 106.951 56.6329 103.234 56.6463C103.036 53.8692 102.588 51.1018 102.536 48.3189C103.006 47.9776 103.568 47.8011 104.093 47.5671C110.221 44.8879 116.396 42.3103 122.497 39.5735C115.524 39.3644 108.541 39.6329 101.567 39.374C101.218 36.8616 100.879 34.3454 100.75 31.8119Z" fill="#CFCFCF"/>
<path d="M103.788 61.5062C106.042 61.4716 108.295 61.4927 110.547 61.4793C111.011 61.487 111.486 61.4736 111.935 61.6116C112.131 63.8095 112.284 66.0131 112.505 68.2091C114.056 68.6598 115.669 68.8381 117.244 69.1814C119.24 69.5363 121.22 69.9831 123.224 70.2804C123.415 73.0651 123.08 75.869 123.4 78.6442C123.343 78.6557 123.226 78.6787 123.168 78.6902C122.748 78.7247 122.34 78.5751 121.935 78.4888C118.533 77.5798 115.094 76.8107 111.697 75.8863C109.48 75.2822 107.256 74.7145 105.035 74.1353C104.388 69.9505 104.009 65.7312 103.788 61.5062Z" fill="#CFCFCF"/>
<path d="M123.237 31.81C130.437 31.8484 137.635 31.7985 144.832 31.856C144.729 34.0059 144.453 36.1424 144.297 38.2905C144.226 38.9675 144.236 39.6598 144.056 40.3215C143.597 40.6782 143.041 40.8777 142.519 41.1174C139.815 42.3161 137.088 43.461 134.394 44.6827C131.586 45.9389 128.709 47.0551 125.974 48.4628C126.711 48.5165 127.451 48.5203 128.191 48.5165C133.273 48.4954 138.358 48.5107 143.44 48.4839C142.909 56.9781 142.071 65.4512 141.315 73.9282C135.339 75.4855 129.39 77.1406 123.4 78.6442C123.08 75.8691 123.416 73.0651 123.224 70.2804C124.313 69.7683 125.489 69.4922 126.634 69.1431C128.782 68.4987 130.945 67.9099 133.076 67.2137C133.26 63.6599 133.555 60.1119 133.749 56.5581C130.272 56.5811 126.795 56.4871 123.32 56.5466C123.212 48.3036 123.335 40.0568 123.237 31.81Z" fill="white"/>
</g>
<defs>
<clipPath id="clip0_679_145">
<rect width="93.0682" height="93.0682" fill="white"/>
</clipPath>
<clipPath id="clip1_679_145">
<rect width="65.5909" height="92.0574" fill="white" transform="translate(90.4092 0.886368)"/>
</clipPath>
</defs>
</svg>
