<svg width="512" height="512" viewBox="0 0 512 512" fill="none" xmlns="http://www.w3.org/2000/svg">
<path d="M96.1 23.2C79.9 29.5 66.2 37.9 52.5 51.6C38.8 65.2 30.4 79 24.1 95.1C18 110.7 13.9 128.6 12.7 154.8C11.5 181 11.2 189.4 11.2 256.2C11.2 323 11.5 331.4 12.7 357.6C13.9 383.8 18.1 401.7 24.1 417.3C30.4 433.5 38.8 447.2 52.5 460.9C66.2 474.6 79.9 483 96.1 489.3C111.7 495.4 129.6 499.5 155.8 500.7C182 501.9 190.4 502.2 257.2 502.2C324 502.2 332.4 501.9 358.6 500.7C384.8 499.5 402.7 495.3 418.3 489.3C434.5 483 448.2 474.6 461.9 460.9C475.6 447.2 484 433.5 490.3 417.3C496.4 401.7 500.5 383.8 501.7 357.6C502.9 331.4 503.2 323 503.2 256.2C503.2 189.4 502.9 181 501.7 154.8C500.5 128.6 496.3 110.7 490.3 95.1C484 79 475.6 65.2 462 51.6C448.3 37.9 434.6 29.5 418.4 23.2C402.8 17.1 384.9 13 358.7 11.8C332.5 10.6 324.1 10.3 257.3 10.3C190.5 10.3 182.1 10.6 155.9 11.8C129.6 12.9 111.7 17.1 96.1 23.2ZM356.6 56C380.6 57.1 393.6 61.1 402.3 64.5C413.8 69 422 74.3 430.6 82.9C439.2 91.5 444.5 99.7 449 111.2C452.4 119.9 456.4 132.9 457.5 156.9C458.7 182.8 458.9 190.6 458.9 256.3C458.9 322 458.6 329.8 457.5 355.7C456.4 379.7 452.4 392.7 449 401.4C444.5 412.9 439.2 421.1 430.6 429.7C422 438.3 413.8 443.6 402.3 448.1C393.6 451.5 380.6 455.5 356.6 456.6C330.7 457.8 322.9 458 257.2 458C191.5 458 183.7 457.7 157.8 456.6C133.8 455.5 120.8 451.5 112.1 448.1C100.6 443.6 92.4 438.3 83.8 429.7C75.2 421.1 69.9 412.9 65.4 401.4C62 392.7 58 379.7 56.9 355.7C55.7 329.8 55.5 322 55.5 256.3C55.5 190.6 55.8 182.8 56.9 156.9C58 132.9 62 119.9 65.4 111.2C69.9 99.7 75.2 91.5 83.8 82.9C92.4 74.3 100.6 69 112.1 64.5C120.8 61.1 133.8 57.1 157.8 56C183.7 54.8 191.5 54.6 257.2 54.6C322.9 54.6 330.7 54.8 356.6 56Z" fill="url(#paint0_radial_702_88)"/>
<path d="M130.9 256.3C130.9 326.1 187.5 382.6 257.2 382.6C326.9 382.6 383.5 326 383.5 256.3C383.5 186.6 327 130 257.2 130C187.4 130 130.9 186.5 130.9 256.3ZM339.2 256.3C339.2 301.6 302.5 338.3 257.2 338.3C211.9 338.3 175.2 301.6 175.2 256.3C175.2 211 211.9 174.3 257.2 174.3C302.5 174.3 339.2 211 339.2 256.3Z" fill="url(#paint1_radial_702_88)"/>
<path d="M388.6 154.5C404.892 154.5 418.1 141.292 418.1 125C418.1 108.708 404.892 95.5 388.6 95.5C372.307 95.5 359.1 108.708 359.1 125C359.1 141.292 372.307 154.5 388.6 154.5Z" fill="white"/>
<defs>
<radialGradient id="paint0_radial_702_88" cx="0" cy="0" r="1" gradientUnits="userSpaceOnUse" gradientTransform="translate(20.1519 457.164) rotate(-3.00009) scale(711.314 604.61)">
<stop stop-color="white"/>
<stop offset="0.0001" stop-color="#F47133"/>
<stop offset="0.0002" stop-color="#BC3081"/>
<stop offset="0.0003" stop-color="white"/>
</radialGradient>
<radialGradient id="paint1_radial_702_88" cx="0" cy="0" r="1" gradientUnits="userSpaceOnUse" gradientTransform="translate(135.481 359.437) rotate(-3.00009) scale(365.269 310.475)">
<stop stop-color="#FED576"/>
<stop offset="0.0001" stop-color="#F47133"/>
<stop offset="0.0002" stop-color="#BC3081"/>
<stop offset="0.0003" stop-color="white"/>
</radialGradient>
</defs>
</svg>
