<svg width="76" height="76" viewBox="0 0 74 74" fill="none" xmlns="http://www.w3.org/2000/svg">
<path d="M0 0H76V76H0V0Z" fill="#F7DF1E"/>
<path d="M19.9833 63.5112L25.7993 59.9914C26.9214 61.9808 27.942 63.664 30.3903 63.664C32.7372 63.664 34.2167 62.746 34.2167 59.1752V34.8914H41.3588V59.2761C41.3588 66.6735 37.0227 70.0405 30.6965 70.0405C24.9831 70.0405 21.6666 67.0815 19.9832 63.5105" fill="black"/>
<path d="M45.238 62.7458L51.0534 59.3788C52.5842 61.8788 54.5739 63.7153 58.0937 63.7153C61.053 63.7153 62.9401 62.2357 62.9401 60.195C62.9401 57.7462 61.0016 56.8789 57.7365 55.4509L55.9515 54.6851C50.7986 52.4919 47.3804 49.737 47.3804 43.9211C47.3804 38.5644 51.4616 34.483 57.8388 34.483C62.3793 34.483 65.6443 36.0646 67.9908 40.197L62.43 43.7679C61.2055 41.5744 59.8795 40.7073 57.839 40.7073C55.7473 40.7073 54.4208 42.0337 54.4208 43.7679C54.4208 45.9106 55.7473 46.7781 58.8079 48.1046L60.5933 48.8698C66.6643 51.4718 70.0824 54.1243 70.0824 60.093C70.0824 66.5213 65.0319 70.0411 58.2469 70.0411C51.6149 70.0411 47.3295 66.8783 45.2382 62.7458" fill="black"/>
</svg>
