<svg width="56" height="65" viewBox="0 0 250 289" fill="none" xmlns="http://www.w3.org/2000/svg">
<path d="M249.94 71.0728L225.861 72.5449L212.491 92.6246L236.571 91.1525L249.94 71.0728Z" fill="#0076C9"/>
<path d="M250 216.988L225.923 215.503L212.562 195.416L236.64 196.901L250 216.988Z" fill="#0076C9"/>
<path d="M234.389 207.983L220.344 207.117L212.552 195.402L226.597 196.268L234.389 207.983Z" fill="white"/>
<path d="M210.003 221.648L202.195 209.943L206.807 196.65L214.615 208.355L210.003 221.648Z" fill="white"/>
<path d="M210.713 189.869L224.756 190.753L233.945 180.094L219.903 179.21L210.713 189.869Z" fill="white"/>
<path d="M0.408447 70.972L24.4858 72.4565L37.8464 92.5504L13.769 91.0659L0.408447 70.972Z" fill="#0076C9"/>
<path d="M124.628 0L113.892 21.6031L124.626 43.2063L135.361 21.6031L124.628 0Z" fill="#0076C9"/>
<path d="M124.639 18.0193L118.377 30.6199L124.639 43.2206L130.9 30.6199L124.639 18.0193Z" fill="white"/>
<path d="M100.625 32.3287L106.869 44.9382L120.689 47.5785L114.445 34.969L100.625 32.3287Z" fill="white"/>
<path d="M128.515 47.5785L134.759 34.969L148.579 32.3287L142.335 44.9382L128.515 47.5785Z" fill="white"/>
<path d="M47.6336 99.3087L2.90747 144.037L47.6336 188.763" fill="white"/>
<path d="M202.922 99.2889L247.775 144.142L202.922 188.996" fill="white"/>
<path d="M47.6597 189.047L64.0211 250.147L125.121 233.786" fill="white"/>
<path d="M125.245 54.5365L186.461 38.1008L202.897 99.3174" fill="white"/>
<path d="M125.428 233.68L186.514 250.092L202.927 189.007" fill="white"/>
<path d="M47.6362 99.3085L64.0948 38.0549L125.283 54.4905" fill="white"/>
<path d="M234.39 79.9568L220.345 80.8228L212.553 92.5327L226.598 91.6668L234.39 79.9568Z" fill="white"/>
<path d="M210.003 65.9124L202.195 77.617L206.808 90.9104L214.615 79.2058L210.003 65.9124Z" fill="white"/>
<path d="M210.714 97.6898L224.757 96.8061L233.946 107.465L219.904 108.348L210.714 97.6898Z" fill="white"/>
<path d="M16.0183 79.985L30.0628 80.851L37.8547 92.5663L23.8102 91.7003L16.0183 79.985Z" fill="white"/>
<path d="M40.4053 66.3206L48.2131 78.0253L43.6005 91.3187L35.7927 79.6141L40.4053 66.3206Z" fill="white"/>
<path d="M39.6947 98.0996L25.652 97.216L16.4622 107.874L30.5049 108.758L39.6947 98.0996Z" fill="white"/>
<path d="M180.083 123.119H144.794V147.051" fill="#0076C9"/>
<path d="M69.9172 123.038H105.206V146.965" fill="white"/>
<path d="M107.721 123.038H105.125V170.008H107.721V123.038Z" fill="white"/>
<path d="M144.916 168.326H105.125V179.034H144.916V168.326Z" fill="white"/>
<path d="M0 216.988L24.0773 215.503L37.4379 195.416L13.3606 196.901L0 216.988Z" fill="#0076C9"/>
<path d="M15.6106 207.983L29.6551 207.117L37.447 195.402L23.4025 196.268L15.6106 207.983Z" fill="white"/>
<path d="M39.9969 221.648L47.8047 209.943L43.1921 196.65L35.3843 208.355L39.9969 221.648Z" fill="white"/>
<path d="M39.2865 189.869L25.2438 190.752L16.054 180.094L30.0967 179.21L39.2865 189.869Z" fill="white"/>
<path d="M124.628 288.12L113.892 266.517L124.626 244.914L135.361 266.517L124.628 288.12Z" fill="#0076C9"/>
<path d="M124.639 270.099L118.377 257.499L124.639 244.898L130.9 257.499L124.639 270.099Z" fill="white"/>
<path d="M100.625 255.792L106.869 243.182L120.689 240.542L114.445 253.151L100.625 255.792Z" fill="white"/>
<path d="M128.515 240.542L134.759 253.151L148.579 255.792L142.335 243.182L128.515 240.542Z" fill="white"/>
</svg>
