<svg width="115" height="70" viewBox="0 0 115 70" fill="none" xmlns="http://www.w3.org/2000/svg">
<g clip-path="url(#clip0_658_93)">
<path d="M56.8514 69.9974C56.469 69.9977 56.0934 69.8979 55.7621 69.7081L52.2942 67.6695C51.7743 67.3827 52.0342 67.2794 52.2006 67.22C52.7484 67.0501 53.2725 66.8123 53.7604 66.512C53.8017 66.4924 53.8475 66.484 53.8932 66.4876C53.9388 66.4913 53.9827 66.5068 54.0204 66.5327L56.6824 68.1036C56.7319 68.1303 56.7873 68.1442 56.8436 68.1442C56.8999 68.1442 56.9553 68.1303 57.0047 68.1036L67.3903 62.1456C67.4387 62.1166 67.4787 62.0757 67.5065 62.0268C67.5343 61.9779 67.5489 61.9227 67.5489 61.8666V49.9557C67.549 49.8985 67.5342 49.8423 67.506 49.7925C67.4777 49.7427 67.437 49.701 67.3877 49.6715L57.0074 43.729C56.9587 43.7011 56.9036 43.6864 56.8475 43.6864C56.7913 43.6864 56.7362 43.7011 56.6876 43.729L46.3073 49.6715C46.2575 49.7007 46.2162 49.7422 46.1875 49.7921C46.1588 49.8419 46.1436 49.8983 46.1435 49.9557V61.8666C46.1434 61.923 46.1585 61.9784 46.1873 62.027C46.2161 62.0757 46.2576 62.1157 46.3073 62.143L49.1513 63.7759C50.6954 64.551 51.6417 63.639 51.6417 62.7424V50.9711C51.6417 50.9319 51.6495 50.893 51.6647 50.8568C51.6799 50.8206 51.7021 50.7877 51.7302 50.7601C51.7582 50.7325 51.7915 50.7106 51.8281 50.6959C51.8646 50.6811 51.9038 50.6736 51.9433 50.674H53.2587C53.2982 50.6736 53.3373 50.6811 53.3739 50.6959C53.4105 50.7106 53.4437 50.7325 53.4718 50.7601C53.4998 50.7877 53.522 50.8206 53.5372 50.8568C53.5524 50.893 53.5602 50.9319 53.5602 50.9711V62.7321C53.5602 64.781 52.4398 65.954 50.4849 65.954C49.8844 65.954 49.4138 65.954 48.0932 65.308L45.3688 63.7578C45.0378 63.5655 44.7631 63.2905 44.5721 62.9601C44.381 62.6297 44.2801 62.2554 44.2795 61.8743V49.9635C44.2796 49.5826 44.3802 49.2085 44.5713 48.8784C44.7625 48.5483 45.0375 48.2739 45.3688 48.0825L55.7491 42.109C56.084 41.9272 56.4594 41.8319 56.841 41.8319C57.2225 41.8319 57.598 41.9272 57.9328 42.109L68.3184 48.0748C68.6495 48.2663 68.9244 48.5408 69.1155 48.8708C69.3066 49.2009 69.4073 49.5749 69.4076 49.9557V61.8666C69.4067 62.2476 69.3058 62.6218 69.1148 62.9521C68.9237 63.2825 68.6492 63.5575 68.3184 63.7501L57.9328 69.7081C57.6038 69.8963 57.231 69.9961 56.8514 69.9974Z" fill="#679E63"/>
<path d="M60.0464 61.7916C55.5023 61.7916 54.5508 59.7247 54.5508 57.9807C54.5504 57.9416 54.5579 57.9028 54.5728 57.8666C54.5877 57.8304 54.6098 57.7975 54.6376 57.7698C54.6654 57.7422 54.6985 57.7203 54.7349 57.7055C54.7714 57.6907 54.8104 57.6832 54.8497 57.6836H56.1938C56.2667 57.6829 56.3374 57.7089 56.3925 57.7565C56.4476 57.804 56.4832 57.87 56.4927 57.9419C56.6955 59.3009 57.2986 59.9882 60.0464 59.9882C62.2353 59.9882 63.166 59.4947 63.166 58.3424C63.166 57.6758 62.906 57.1823 59.5031 56.8516C56.6617 56.5726 54.9043 55.9473 54.9043 53.6892C54.9043 51.6067 56.6695 50.364 59.6305 50.364C62.958 50.364 64.6036 51.5111 64.8116 53.9811C64.8152 54.0223 64.8101 54.0638 64.7967 54.103C64.7833 54.1421 64.7618 54.1781 64.7336 54.2085C64.7052 54.2385 64.671 54.2625 64.633 54.279C64.595 54.2954 64.554 54.304 64.5126 54.3041H63.166C63.0981 54.3039 63.0323 54.2808 62.9794 54.2386C62.9264 54.1963 62.8896 54.1374 62.8748 54.0715C62.5499 52.6428 61.7648 52.1855 59.6305 52.1855C57.2414 52.1855 56.9633 53.0122 56.9633 53.6323C56.9633 54.3816 57.2908 54.6012 60.517 55.0249C63.7431 55.4487 65.2249 56.0377 65.2249 58.2675C65.2249 60.4972 63.3506 61.7916 60.0464 61.7916Z" fill="#679E63"/>
<path d="M75.0227 49.2994C75.0227 49.6929 74.9053 50.0776 74.6854 50.4047C74.4654 50.7319 74.1528 50.9869 73.787 51.1375C73.4213 51.288 73.0188 51.3274 72.6305 51.2507C72.2422 51.1739 71.8855 50.9844 71.6056 50.7062C71.3256 50.428 71.135 50.0735 71.0578 49.6876C70.9805 49.3016 71.0202 48.9016 71.1717 48.5381C71.3232 48.1746 71.5797 47.8639 71.9089 47.6453C72.2381 47.4267 72.6251 47.31 73.021 47.31C73.5515 47.3114 74.0598 47.5214 74.4349 47.8942C74.81 48.267 75.0214 48.7722 75.0227 49.2994ZM71.3416 49.2994C71.3406 49.63 71.4384 49.9534 71.6225 50.2287C71.8066 50.5039 72.0689 50.7187 72.3759 50.8456C72.683 50.9726 73.0211 51.0061 73.3474 50.9419C73.6736 50.8776 73.9733 50.7185 74.2085 50.4848C74.4437 50.2511 74.6037 49.9532 74.6683 49.629C74.733 49.3047 74.6993 48.9687 74.5715 48.6635C74.4438 48.3583 74.2277 48.0977 73.9508 47.9147C73.6738 47.7317 73.3484 47.6345 73.0158 47.6355C72.5731 47.6369 72.1489 47.8119 71.8353 48.1226C71.5218 48.4332 71.3444 48.8543 71.3416 49.2943V49.2994ZM72.2697 48.1885H73.0496C73.3096 48.1885 73.8295 48.1885 73.8295 48.7775C73.8393 48.9047 73.8015 49.031 73.7233 49.1321C73.6451 49.2333 73.532 49.3021 73.4058 49.3253C73.7125 49.3459 73.7333 49.5475 73.7749 49.842C73.7866 50.0428 73.826 50.241 73.8919 50.4311H73.4162C73.4162 50.3252 73.3304 49.7568 73.3304 49.7258C73.2992 49.5992 73.255 49.5371 73.0964 49.5371H72.7091V50.4311H72.2749L72.2697 48.1885ZM72.6935 49.1677H73.0418C73.0859 49.1735 73.1307 49.1695 73.1731 49.1561C73.2155 49.1426 73.2543 49.12 73.2869 49.0899C73.3194 49.0598 73.3449 49.0228 73.3614 48.9818C73.3779 48.9408 73.385 48.8966 73.3824 48.8525C73.3824 48.5476 73.1692 48.5476 73.0522 48.5476H72.6935V49.1677Z" fill="#679E63"/>
<path fill-rule="evenodd" clip-rule="evenodd" d="M24.6783 23.3953C24.6793 23.1624 24.6183 22.9333 24.5014 22.7314C24.3845 22.5294 24.2159 22.3618 24.0128 22.2456L13.0034 15.9491C12.8186 15.8431 12.6108 15.7828 12.3977 15.7734H12.2833C12.0693 15.7831 11.8608 15.8433 11.675 15.9491L0.665508 22.2456C0.462914 22.3624 0.294788 22.5302 0.177984 22.732C0.061179 22.9338 -0.00020079 23.1625 4.9346e-07 23.3953L0.0233982 40.3521C0.0223756 40.4682 0.0527115 40.5824 0.111241 40.6828C0.169771 40.7833 0.25435 40.8662 0.356151 40.9231C0.455801 40.9828 0.569949 41.0144 0.686304 41.0144C0.802658 41.0144 0.916809 40.9828 1.01646 40.9231L7.55974 37.2C7.76142 37.0828 7.92888 36.9153 8.04558 36.7141C8.16229 36.513 8.22421 36.2851 8.22524 36.0528V28.1287C8.22509 27.8972 8.28628 27.6698 8.40266 27.4693C8.51903 27.2689 8.68648 27.1024 8.88815 26.9867L11.675 25.3899C11.8781 25.2737 12.1087 25.2131 12.3431 25.2142C12.575 25.2132 12.803 25.2739 13.0034 25.3899L15.7902 26.9867C15.9919 27.1024 16.1593 27.2689 16.2757 27.4693C16.392 27.6698 16.4532 27.8972 16.4531 28.1287V36.0528C16.4544 36.2853 16.5167 36.5134 16.6339 36.7146C16.751 36.9158 16.919 37.0831 17.1212 37.2L23.6619 40.9231C23.7625 40.9827 23.8775 41.0142 23.9946 41.0142C24.1118 41.0142 24.2267 40.9827 24.3274 40.9231C24.4278 40.8649 24.5111 40.7815 24.569 40.6814C24.627 40.5812 24.6575 40.4677 24.6575 40.3521L24.6783 23.3953Z" fill="#333333"/>
<path fill-rule="evenodd" clip-rule="evenodd" d="M77.6484 0.0826798C77.5473 0.0270303 77.4333 -0.00147761 77.3177 -3.97331e-05C77.2021 0.00139814 77.0889 0.0327323 76.9892 0.09088C76.8895 0.149028 76.8068 0.231985 76.7491 0.331575C76.6915 0.431166 76.661 0.543959 76.6605 0.658846V17.4529C76.6601 17.5344 76.6382 17.6145 76.5972 17.6852C76.5562 17.7558 76.4974 17.8147 76.4266 17.8559C76.3558 17.8965 76.2756 17.9179 76.1939 17.9179C76.1122 17.9179 76.032 17.8965 75.9612 17.8559L73.2134 16.2721C73.0116 16.156 72.7824 16.0948 72.5492 16.0948C72.316 16.0948 72.0869 16.156 71.885 16.2721L60.8703 22.5892C60.6676 22.7046 60.4993 22.8713 60.3824 23.0724C60.2655 23.2734 60.2042 23.5016 60.2048 23.7338V36.3732C60.205 36.6053 60.2666 36.8332 60.3834 37.0341C60.5002 37.235 60.6682 37.4018 60.8703 37.5178L71.885 43.8401C72.087 43.9557 72.3161 44.0166 72.5492 44.0166C72.7823 44.0166 73.0114 43.9557 73.2134 43.8401L84.2307 37.5178C84.4325 37.4014 84.6001 37.2345 84.7169 37.0337C84.8336 36.8329 84.8955 36.6052 84.8962 36.3732V4.87285C84.8963 4.63722 84.8329 4.40586 84.7127 4.20278C84.5925 3.9997 84.4197 3.83229 84.2125 3.71794L77.6484 0.0826798ZM76.6267 32.2238C76.6271 32.282 76.6118 32.3392 76.5826 32.3896C76.5534 32.44 76.5112 32.4818 76.4604 32.5106L72.6779 34.6783C72.627 34.7064 72.5697 34.7211 72.5115 34.7211C72.4533 34.7211 72.396 34.7064 72.3451 34.6783L68.5653 32.5106C68.5144 32.4818 68.4723 32.44 68.443 32.3896C68.4138 32.3392 68.3986 32.282 68.3989 32.2238V27.8832C68.399 27.8258 68.4142 27.7694 68.4429 27.7196C68.4716 27.6697 68.5129 27.6282 68.5627 27.599L72.3451 25.4261C72.3956 25.3968 72.453 25.3814 72.5115 25.3814C72.57 25.3814 72.6274 25.3968 72.6779 25.4261L76.4604 27.599C76.5108 27.6277 76.5527 27.669 76.5819 27.7189C76.6112 27.7688 76.6266 27.8255 76.6267 27.8832V32.2238Z" fill="#333333"/>
<path fill-rule="evenodd" clip-rule="evenodd" d="M114.337 27.7695C114.539 27.6538 114.706 27.4873 114.823 27.2869C114.939 27.0864 115 26.859 115 26.6275V23.5659C115 23.3341 114.939 23.1064 114.823 22.9055C114.706 22.7046 114.539 22.5376 114.337 22.4213L103.385 16.1067C103.182 15.9907 102.952 15.9296 102.718 15.9296C102.484 15.9296 102.254 15.9907 102.051 16.1067L91.0417 22.4265C90.839 22.5419 90.6707 22.7086 90.5538 22.9096C90.4369 23.1106 90.3756 23.3388 90.3762 23.571V36.2053C90.3765 36.4383 90.4386 36.667 90.5564 36.8685C90.6742 37.0699 90.8434 37.2369 91.0469 37.3525L101.991 43.5533C102.19 43.6635 102.414 43.7214 102.641 43.7214C102.869 43.7214 103.093 43.6635 103.291 43.5533L109.91 39.8974C110.013 39.8398 110.098 39.7561 110.158 39.6549C110.217 39.5536 110.249 39.4385 110.249 39.3212C110.249 39.204 110.217 39.0888 110.158 38.9876C110.098 38.8863 110.013 38.8027 109.91 38.7451L98.8302 32.4253C98.7287 32.3674 98.6442 32.2838 98.5853 32.1832C98.5265 32.0825 98.4953 31.9682 98.4949 31.8518V27.8987C98.4949 27.7829 98.5257 27.6691 98.5842 27.5688C98.6426 27.4686 98.7266 27.3854 98.8276 27.3277L102.277 25.3512C102.378 25.2929 102.492 25.2621 102.609 25.2621C102.725 25.2621 102.84 25.2929 102.94 25.3512L106.393 27.3277C106.494 27.3854 106.578 27.4686 106.636 27.5688C106.694 27.6691 106.725 27.7829 106.725 27.8987V30.9992C106.725 31.1154 106.755 31.2297 106.814 31.3305C106.872 31.4312 106.956 31.5149 107.058 31.5729C107.159 31.6308 107.274 31.6611 107.391 31.6607C107.508 31.6602 107.623 31.629 107.724 31.5701L114.337 27.7695Z" fill="#333333"/>
<path fill-rule="evenodd" clip-rule="evenodd" d="M102.563 27.1779C102.603 27.1552 102.648 27.1432 102.693 27.1432C102.739 27.1432 102.784 27.1552 102.823 27.1779L104.945 28.3896C104.984 28.4122 105.016 28.4445 105.039 28.4835C105.062 28.5225 105.074 28.5667 105.074 28.6118V31.0353C105.074 31.08 105.061 31.1237 105.039 31.1622C105.016 31.2007 104.983 31.2326 104.945 31.2549L102.831 32.4693C102.791 32.4919 102.747 32.5039 102.701 32.5039C102.655 32.5039 102.611 32.4919 102.571 32.4693L100.46 31.2549C100.422 31.2323 100.39 31.2002 100.367 31.1617C100.345 31.1233 100.333 31.0797 100.333 31.0353V28.6118C100.333 28.567 100.345 28.5229 100.367 28.484C100.389 28.445 100.421 28.4125 100.46 28.3896L102.563 27.1779Z" fill="#679E63"/>
<path fill-rule="evenodd" clip-rule="evenodd" d="M43.1046 16.1713C42.9035 16.0559 42.6753 15.9951 42.443 15.9951C42.2108 15.9951 41.9826 16.0559 41.7814 16.1713L30.8292 22.4523C30.6277 22.5676 30.4603 22.7336 30.344 22.9336C30.2276 23.1337 30.1663 23.3606 30.1663 23.5917V36.1665C30.1665 36.3972 30.2279 36.6237 30.3443 36.8233C30.4607 37.0229 30.6279 37.1885 30.8292 37.3034L41.7736 43.5921C41.9748 43.7075 42.203 43.7683 42.4352 43.7683C42.6675 43.7683 42.8957 43.7075 43.0968 43.5921L54.0491 37.3034C54.2497 37.188 54.4163 37.0222 54.5322 36.8227C54.6481 36.6232 54.7092 36.3969 54.7094 36.1665V23.5917C54.7094 23.3606 54.6481 23.1337 54.5317 22.9336C54.4153 22.7336 54.248 22.5676 54.0465 22.4523L43.1046 16.1713Z" fill="url(#paint0_linear_658_93)"/>
<path d="M54.0776 22.4523L43.0942 16.1713C42.986 16.1097 42.8696 16.0636 42.7484 16.0344L30.4158 37.0011C30.5222 37.1204 30.6467 37.2224 30.7849 37.3033L41.7892 43.5921C41.9426 43.6791 42.1119 43.7351 42.2873 43.7569C42.4626 43.7786 42.6406 43.7656 42.8108 43.7187L54.3714 22.6771C54.2828 22.5908 54.1842 22.5153 54.0776 22.4523Z" fill="url(#paint1_linear_658_93)"/>
<path d="M41.4174 13.8615L41.2666 13.9468H41.4668L41.4174 13.8615Z" fill="url(#paint2_linear_658_93)"/>
<path d="M54.0829 37.3034C54.241 37.2131 54.3796 37.0927 54.4907 36.949C54.6018 36.8054 54.6832 36.6413 54.7302 36.4662L42.6887 16.0137C42.3708 15.9493 42.0402 16.0017 41.7581 16.161L30.8396 22.4058L42.6237 43.7445C42.7939 43.7213 42.958 43.6661 43.1073 43.5817L54.0829 37.3034Z" fill="url(#paint3_linear_658_93)"/>
<path d="M55.1045 37.1018L55.0317 36.9804V37.1432L55.1045 37.1018Z" fill="url(#paint4_linear_658_93)"/>
<path d="M54.0828 37.3034L43.1176 43.5921C42.9683 43.6764 42.8042 43.7317 42.634 43.7548L42.8524 44.1502L55.0317 37.1432V36.9778L54.7301 36.4611C54.6837 36.6371 54.6026 36.8021 54.4914 36.9467C54.3803 37.0913 54.2414 37.2125 54.0828 37.3034Z" fill="url(#paint5_linear_658_93)"/>
<path d="M54.0828 37.3034L43.1176 43.5921C42.9683 43.6764 42.8042 43.7317 42.634 43.7548L42.8524 44.1502L55.0317 37.1432V36.9778L54.7301 36.4611C54.6837 36.6371 54.6026 36.8021 54.4914 36.9467C54.3803 37.0913 54.2414 37.2125 54.0828 37.3034Z" fill="url(#paint6_linear_658_93)"/>
</g>
<defs>
<linearGradient id="paint0_linear_658_93" x1="46.8949" y1="20.8478" x2="37.0985" y2="40.9604" gradientUnits="userSpaceOnUse">
<stop stop-color="#3F873F"/>
<stop offset="0.33" stop-color="#3F8B3D"/>
<stop offset="0.64" stop-color="#3E9637"/>
<stop offset="0.93" stop-color="#3DA92E"/>
<stop offset="1" stop-color="#3DAE2B"/>
</linearGradient>
<linearGradient id="paint1_linear_658_93" x1="40.7753" y1="31.3479" x2="68.4186" y2="10.7975" gradientUnits="userSpaceOnUse">
<stop offset="0.14" stop-color="#3F873F"/>
<stop offset="0.4" stop-color="#529F44"/>
<stop offset="0.71" stop-color="#63B649"/>
<stop offset="0.91" stop-color="#6ABF4B"/>
</linearGradient>
<linearGradient id="paint2_linear_658_93" x1="29.7816" y1="13.9054" x2="55.1042" y2="13.9054" gradientUnits="userSpaceOnUse">
<stop offset="0.09" stop-color="#6ABF4B"/>
<stop offset="0.29" stop-color="#63B649"/>
<stop offset="0.6" stop-color="#529F44"/>
<stop offset="0.86" stop-color="#3F873F"/>
</linearGradient>
<linearGradient id="paint3_linear_658_93" x1="4638.39" y1="7778.4" x2="6965.81" y2="7778.4" gradientUnits="userSpaceOnUse">
<stop offset="0.09" stop-color="#6ABF4B"/>
<stop offset="0.29" stop-color="#63B649"/>
<stop offset="0.6" stop-color="#529F44"/>
<stop offset="0.86" stop-color="#3F873F"/>
</linearGradient>
<linearGradient id="paint4_linear_658_93" x1="63.3717" y1="60.3297" x2="70.4631" y2="60.3297" gradientUnits="userSpaceOnUse">
<stop offset="0.09" stop-color="#6ABF4B"/>
<stop offset="0.29" stop-color="#63B649"/>
<stop offset="0.6" stop-color="#529F44"/>
<stop offset="0.86" stop-color="#3F873F"/>
</linearGradient>
<linearGradient id="paint5_linear_658_93" x1="2433.64" y1="2497.19" x2="3641.42" y2="2497.19" gradientUnits="userSpaceOnUse">
<stop offset="0.09" stop-color="#6ABF4B"/>
<stop offset="0.29" stop-color="#63B649"/>
<stop offset="0.6" stop-color="#529F44"/>
<stop offset="0.86" stop-color="#3F873F"/>
</linearGradient>
<linearGradient id="paint6_linear_658_93" x1="3817.35" y1="1900.37" x2="3492.06" y2="2970.37" gradientUnits="userSpaceOnUse">
<stop stop-color="#3F873F"/>
<stop offset="0.33" stop-color="#3F8B3D"/>
<stop offset="0.64" stop-color="#3E9637"/>
<stop offset="0.93" stop-color="#3DA92E"/>
<stop offset="1" stop-color="#3DAE2B"/>
</linearGradient>
<clipPath id="clip0_658_93">
<rect width="115" height="70" fill="white"/>
</clipPath>
</defs>
</svg>
