<svg width="154" height="63" viewBox="0 0 153 63" fill="none" xmlns="http://www.w3.org/2000/svg">
<path d="M54.6157 39.85L56.1445 36.3039C57.7965 37.5352 59.991 38.1754 62.1608 38.1754C63.7636 38.1754 64.7745 37.5598 64.7745 36.624C64.7498 34.0137 55.1828 36.0576 55.1089 29.5072C55.0842 26.1827 58.0431 23.6216 62.2348 23.6216C64.7252 23.6216 67.2156 24.2373 68.9909 25.6409L67.5608 29.2609C65.9334 28.2266 63.9115 27.4879 61.9882 27.4879C60.6814 27.4879 59.8184 28.1035 59.8184 28.8915C59.8431 31.4526 69.484 30.0489 69.5827 36.3039C69.5827 39.7022 66.6978 42.0909 62.5553 42.0909C59.5225 42.0909 56.7362 41.3768 54.6157 39.85Z" fill="black"/>
<path d="M113.275 35.0233C112.511 36.3531 111.081 37.2643 109.429 37.2643C106.988 37.2643 105.015 35.2942 105.015 32.8563C105.015 30.4183 106.988 28.4483 109.429 28.4483C111.081 28.4483 112.511 29.3594 113.275 30.6892L117.492 28.3498C115.914 25.5424 112.881 23.6216 109.429 23.6216C104.325 23.6216 100.182 27.7587 100.182 32.8563C100.182 37.9538 104.325 42.0909 109.429 42.0909C112.906 42.0909 115.914 40.1947 117.492 37.3628L113.275 35.0233Z" fill="black"/>
<path d="M76.9798 15.963H71.7031V41.7462H76.9798V15.963Z" fill="black"/>
<path d="M119.563 15.963V41.7462H124.839V34.0137L131.102 41.7462H137.858L129.894 32.5608L137.267 23.991H130.806L124.839 31.1078V15.963H119.563Z" fill="black"/>
<path d="M92.6618 35.0726C91.8974 36.3285 90.3194 37.2643 88.5441 37.2643C86.103 37.2643 84.1304 35.2942 84.1304 32.8563C84.1304 30.4183 86.103 28.4483 88.5441 28.4483C90.3194 28.4483 91.8974 29.4333 92.6618 30.7138V35.0726ZM92.6618 23.991V26.0842C91.7988 24.6313 89.6536 23.6216 87.4098 23.6216C82.7743 23.6216 79.125 27.7095 79.125 32.8316C79.125 37.9538 82.7743 42.0909 87.4098 42.0909C89.6536 42.0909 91.7988 41.0813 92.6618 39.6283V41.7215H97.9384V23.991H92.6618Z" fill="black"/>
<path d="M21.9941 35.048C21.9941 36.8456 20.5394 38.2986 18.7394 38.2986C16.9394 38.2986 15.4846 36.8456 15.4846 35.048C15.4846 33.2503 16.9394 31.7974 18.7394 31.7974H21.9941V35.048Z" fill="#E01E5A"/>
<path d="M23.6216 35.048C23.6216 33.2503 25.0764 31.7974 26.8763 31.7974C28.6763 31.7974 30.1311 33.2503 30.1311 35.048V43.1745C30.1311 44.9721 28.6763 46.4251 26.8763 46.4251C25.0764 46.4251 23.6216 44.9721 23.6216 43.1745V35.048Z" fill="#E01E5A"/>
<path d="M26.8763 21.9963C25.0764 21.9963 23.6216 20.5434 23.6216 18.7457C23.6216 16.948 25.0764 15.4951 26.8763 15.4951C28.6763 15.4951 30.1311 16.948 30.1311 18.7457V21.9963H26.8763Z" fill="#36C5F0"/>
<path d="M26.8763 23.6462C28.6762 23.6462 30.131 25.0992 30.131 26.8968C30.131 28.6945 28.6762 30.1474 26.8763 30.1474H18.7147C16.9147 30.1474 15.46 28.6945 15.46 26.8968C15.46 25.0992 16.9147 23.6462 18.7147 23.6462H26.8763Z" fill="#36C5F0"/>
<path d="M39.9199 26.8968C39.9199 25.0992 41.3747 23.6462 43.1747 23.6462C44.9747 23.6462 46.4294 25.0992 46.4294 26.8968C46.4294 28.6945 44.9747 30.1474 43.1747 30.1474H39.9199V26.8968Z" fill="#2EB67D"/>
<path d="M38.2925 26.8968C38.2925 28.6945 36.8377 30.1474 35.0377 30.1474C33.2377 30.1474 31.783 28.6945 31.783 26.8968V18.7457C31.783 16.948 33.2377 15.4951 35.0377 15.4951C36.8377 15.4951 38.2925 16.948 38.2925 18.7457V26.8968Z" fill="#2EB67D"/>
<path d="M35.0377 39.9239C36.8377 39.9239 38.2925 41.3768 38.2925 43.1745C38.2925 44.9721 36.8377 46.4251 35.0377 46.4251C33.2377 46.4251 31.783 44.9721 31.783 43.1745V39.9239H35.0377Z" fill="#ECB22E"/>
<path d="M35.0377 38.2986C33.2377 38.2986 31.783 36.8456 31.783 35.048C31.783 33.2503 33.2377 31.7974 35.0377 31.7974H43.1993C44.9992 31.7974 46.454 33.2503 46.454 35.048C46.454 36.8456 44.9992 38.2986 43.1993 38.2986H35.0377Z" fill="#ECB22E"/>
</svg>
